<svg width="102" height="13" viewBox="0 0 102 13" fill="none" xmlns="http://www.w3.org/2000/svg">
<path d="M10.2592 4.63849H8.5973C8.53338 4.28338 8.41442 3.97088 8.24041 3.70099C8.06641 3.43111 7.85334 3.20206 7.60121 3.01385C7.34908 2.82564 7.06676 2.68359 6.75426 2.58771C6.44531 2.49183 6.11683 2.44389 5.76882 2.44389C5.14027 2.44389 4.57741 2.60192 4.08026 2.91797C3.58665 3.23402 3.19602 3.69744 2.90838 4.30824C2.62429 4.91903 2.48224 5.66477 2.48224 6.54545C2.48224 7.43324 2.62429 8.18253 2.90838 8.79332C3.19602 9.40412 3.58842 9.86577 4.08558 10.1783C4.58274 10.4908 5.14205 10.647 5.76349 10.647C6.10795 10.647 6.43466 10.6009 6.74361 10.5085C7.05611 10.4126 7.33842 10.2724 7.59055 10.0877C7.84268 9.90305 8.05575 9.67756 8.22976 9.41122C8.40732 9.14134 8.52983 8.83239 8.5973 8.48438L10.2592 8.4897C10.1705 9.02592 9.99822 9.51953 9.74254 9.97053C9.49041 10.418 9.16548 10.805 8.76776 11.1317C8.37358 11.4549 7.92259 11.7053 7.41477 11.8828C6.90696 12.0604 6.35298 12.1491 5.75284 12.1491C4.80824 12.1491 3.96662 11.9254 3.22798 11.478C2.48935 11.027 1.90696 10.3825 1.48082 9.54439C1.05824 8.70632 0.846946 7.70668 0.846946 6.54545C0.846946 5.38068 1.06001 4.38104 1.48615 3.54652C1.91229 2.70845 2.49467 2.0657 3.23331 1.61825C3.97195 1.16726 4.81179 0.941761 5.75284 0.941761C6.33168 0.941761 6.87145 1.02521 7.37216 1.19212C7.87642 1.35547 8.32919 1.59695 8.73047 1.91655C9.13175 2.2326 9.46378 2.61967 9.72656 3.07777C9.98935 3.53232 10.1669 4.05256 10.2592 4.63849ZM15.9973 12.1651C15.2303 12.1651 14.5609 11.9893 13.9892 11.6378C13.4174 11.2862 12.9735 10.7944 12.6575 10.1623C12.3414 9.53018 12.1834 8.79155 12.1834 7.94638C12.1834 7.09766 12.3414 6.35547 12.6575 5.71982C12.9735 5.08416 13.4174 4.59055 13.9892 4.23899C14.5609 3.88743 15.2303 3.71165 15.9973 3.71165C16.7644 3.71165 17.4338 3.88743 18.0055 4.23899C18.5772 4.59055 19.0211 5.08416 19.3372 5.71982C19.6532 6.35547 19.8112 7.09766 19.8112 7.94638C19.8112 8.79155 19.6532 9.53018 19.3372 10.1623C19.0211 10.7944 18.5772 11.2862 18.0055 11.6378C17.4338 11.9893 16.7644 12.1651 15.9973 12.1651ZM16.0026 10.8281C16.4998 10.8281 16.9117 10.6967 17.2384 10.4339C17.5651 10.1712 17.8066 9.82138 17.9629 9.38459C18.1227 8.9478 18.2026 8.46662 18.2026 7.94105C18.2026 7.41903 18.1227 6.93963 17.9629 6.50284C17.8066 6.0625 17.5651 5.70916 17.2384 5.44283C16.9117 5.17649 16.4998 5.04332 16.0026 5.04332C15.5019 5.04332 15.0865 5.17649 14.7562 5.44283C14.4295 5.70916 14.1862 6.0625 14.0264 6.50284C13.8702 6.93963 13.7921 7.41903 13.7921 7.94105C13.7921 8.46662 13.8702 8.9478 14.0264 9.38459C14.1862 9.82138 14.4295 10.1712 14.7562 10.4339C15.0865 10.6967 15.5019 10.8281 16.0026 10.8281ZM23.6317 1.09091V12H22.039V1.09091H23.6317ZM27.8171 1.09091V12H26.2244V1.09091H27.8171ZM32.7908 12.1811C32.2723 12.1811 31.8036 12.0852 31.3845 11.8935C30.9655 11.6982 30.6335 11.4158 30.3884 11.0465C30.1469 10.6772 30.0262 10.2244 30.0262 9.68821C30.0262 9.22656 30.115 8.84659 30.2925 8.5483C30.4701 8.25 30.7098 8.01385 31.0116 7.83984C31.3135 7.66584 31.6509 7.53445 32.0237 7.44567C32.3966 7.35689 32.7766 7.28942 33.1636 7.24325C33.6537 7.18643 34.0514 7.14027 34.3568 7.10476C34.6622 7.0657 34.8842 7.00355 35.0227 6.91832C35.1611 6.8331 35.2304 6.6946 35.2304 6.50284V6.46555C35.2304 6.00035 35.099 5.63991 34.8362 5.38423C34.577 5.12855 34.1899 5.00071 33.675 5.00071C33.1388 5.00071 32.7162 5.11967 32.4072 5.3576C32.1018 5.59197 31.8906 5.85298 31.7734 6.14062L30.2766 5.79972C30.4541 5.30256 30.7134 4.90128 31.0543 4.59588C31.3987 4.28693 31.7947 4.06321 32.2421 3.92472C32.6896 3.78267 33.1601 3.71165 33.6537 3.71165C33.9804 3.71165 34.3266 3.75071 34.6924 3.82884C35.0617 3.90341 35.4062 4.0419 35.7258 4.24432C36.0489 4.44673 36.3135 4.73615 36.5195 5.11257C36.7254 5.48544 36.8284 5.97017 36.8284 6.56676V12H35.273V10.8814H35.2091C35.1061 11.0874 34.9516 11.2898 34.7457 11.4886C34.5397 11.6875 34.2751 11.8526 33.952 11.984C33.6288 12.1154 33.2418 12.1811 32.7908 12.1811ZM33.137 10.9027C33.5773 10.9027 33.9538 10.8157 34.2663 10.6417C34.5823 10.4677 34.822 10.2404 34.9854 9.95987C35.1523 9.67578 35.2357 9.37216 35.2357 9.04901V7.99432C35.1789 8.05114 35.0688 8.1044 34.9055 8.15412C34.7457 8.20028 34.5628 8.24112 34.3568 8.27663C34.1509 8.30859 33.9502 8.33878 33.7549 8.36719C33.5596 8.39205 33.3962 8.41335 33.2648 8.43111C32.9559 8.47017 32.6736 8.53587 32.4179 8.6282C32.1658 8.72053 31.9634 8.85369 31.8107 9.0277C31.6615 9.19815 31.5869 9.42543 31.5869 9.70952C31.5869 10.1037 31.7325 10.402 32.0237 10.6044C32.3149 10.8033 32.686 10.9027 33.137 10.9027ZM39.5276 12V1.09091H41.1203V5.14453H41.2162C41.3085 4.97408 41.4417 4.77699 41.6157 4.55327C41.7897 4.32955 42.0312 4.13423 42.3401 3.96733C42.6491 3.79688 43.0574 3.71165 43.5653 3.71165C44.2258 3.71165 44.8153 3.87855 45.3337 4.21236C45.8522 4.54616 46.2588 5.02734 46.5535 5.65589C46.8518 6.28445 47.001 7.04084 47.001 7.92507C47.001 8.8093 46.8536 9.56747 46.5589 10.1996C46.2641 10.8281 45.8593 11.3129 45.3444 11.6538C44.8295 11.9911 44.2417 12.1598 43.5812 12.1598C43.0841 12.1598 42.6775 12.0763 42.3614 11.9094C42.0489 11.7425 41.8039 11.5472 41.6263 11.3235C41.4488 11.0998 41.3121 10.9009 41.2162 10.7269H41.083V12H39.5276ZM41.0883 7.90909C41.0883 8.48437 41.1718 8.98864 41.3387 9.42188C41.5056 9.85511 41.7471 10.1942 42.0631 10.4393C42.3792 10.6808 42.7662 10.8015 43.2243 10.8015C43.7002 10.8015 44.0979 10.6754 44.4175 10.4233C44.7371 10.1676 44.9786 9.82138 45.142 9.38459C45.3089 8.9478 45.3923 8.45597 45.3923 7.90909C45.3923 7.36932 45.3106 6.88459 45.1473 6.4549C44.9875 6.02521 44.746 5.68608 44.4229 5.4375C44.1032 5.18892 43.7037 5.06463 43.2243 5.06463C42.7627 5.06463 42.3721 5.18359 42.0525 5.42152C41.7364 5.65945 41.4967 5.99148 41.3334 6.41761C41.17 6.84375 41.0883 7.34091 41.0883 7.90909ZM49.2394 12V3.81818H50.7788V5.1179H50.8641C51.0132 4.67756 51.276 4.33132 51.6524 4.07919C52.0324 3.82351 52.4621 3.69567 52.9415 3.69567C53.0409 3.69567 53.1581 3.69922 53.293 3.70632C53.4315 3.71342 53.5398 3.7223 53.618 3.73295V5.25639C53.554 5.23864 53.4404 5.21911 53.2771 5.1978C53.1137 5.17294 52.9504 5.16051 52.787 5.16051C52.4106 5.16051 52.075 5.24041 51.7803 5.40021C51.4891 5.55646 51.2582 5.77486 51.0878 6.0554C50.9173 6.33239 50.8321 6.64844 50.8321 7.00355V12H49.2394ZM57.754 12.1811C57.2356 12.1811 56.7668 12.0852 56.3478 11.8935C55.9288 11.6982 55.5967 11.4158 55.3517 11.0465C55.1102 10.6772 54.9895 10.2244 54.9895 9.68821C54.9895 9.22656 55.0783 8.84659 55.2558 8.5483C55.4334 8.25 55.6731 8.01385 55.9749 7.83984C56.2768 7.66584 56.6141 7.53445 56.987 7.44567C57.3599 7.35689 57.7398 7.28942 58.1269 7.24325C58.617 7.18643 59.0147 7.14027 59.3201 7.10476C59.6255 7.0657 59.8474 7.00355 59.9859 6.91832C60.1244 6.8331 60.1937 6.6946 60.1937 6.50284V6.46555C60.1937 6.00035 60.0623 5.63991 59.7995 5.38423C59.5403 5.12855 59.1532 5.00071 58.6383 5.00071C58.1021 5.00071 57.6795 5.11967 57.3705 5.3576C57.0651 5.59197 56.8538 5.85298 56.7366 6.14062L55.2398 5.79972C55.4174 5.30256 55.6766 4.90128 56.0175 4.59588C56.362 4.28693 56.758 4.06321 57.2054 3.92472C57.6528 3.78267 58.1234 3.71165 58.617 3.71165C58.9437 3.71165 59.2899 3.75071 59.6557 3.82884C60.025 3.90341 60.3695 4.0419 60.6891 4.24432C61.0122 4.44673 61.2768 4.73615 61.4827 5.11257C61.6887 5.48544 61.7917 5.97017 61.7917 6.56676V12H60.2363V10.8814H60.1724C60.0694 11.0874 59.9149 11.2898 59.709 11.4886C59.503 11.6875 59.2384 11.8526 58.9153 11.984C58.5921 12.1154 58.205 12.1811 57.754 12.1811ZM58.1003 10.9027C58.5406 10.9027 58.917 10.8157 59.2295 10.6417C59.5456 10.4677 59.7853 10.2404 59.9487 9.95987C60.1156 9.67578 60.199 9.37216 60.199 9.04901V7.99432C60.1422 8.05114 60.0321 8.1044 59.8688 8.15412C59.709 8.20028 59.5261 8.24112 59.3201 8.27663C59.1141 8.30859 58.9135 8.33878 58.7182 8.36719C58.5229 8.39205 58.3595 8.41335 58.2281 8.43111C57.9192 8.47017 57.6369 8.53587 57.3812 8.6282C57.129 8.72053 56.9266 8.85369 56.7739 9.0277C56.6248 9.19815 56.5502 9.42543 56.5502 9.70952C56.5502 10.1037 56.6958 10.402 56.987 10.6044C57.2782 10.8033 57.6493 10.9027 58.1003 10.9027ZM65.8652 12L62.8396 1.09091H64.5708L66.6961 9.53906H66.7974L69.0079 1.09091H70.7231L72.9337 9.54439H73.0349L75.155 1.09091H76.8915L73.8606 12H72.204L69.9081 3.82884H69.8229L67.5271 12H65.8652ZM78.2017 12V3.81818H79.7411V5.1179H79.8264C79.9755 4.67756 80.2383 4.33132 80.6147 4.07919C80.9947 3.82351 81.4244 3.69567 81.9038 3.69567C82.0032 3.69567 82.1204 3.69922 82.2553 3.70632C82.3938 3.71342 82.5022 3.7223 82.5803 3.73295V5.25639C82.5164 5.23864 82.4027 5.21911 82.2394 5.1978C82.076 5.17294 81.9127 5.16051 81.7493 5.16051C81.3729 5.16051 81.0373 5.24041 80.7426 5.40021C80.4514 5.55646 80.2205 5.77486 80.0501 6.0554C79.8796 6.33239 79.7944 6.64844 79.7944 7.00355V12H78.2017ZM84.4086 12V3.81818H86.0012V12H84.4086ZM85.2129 2.55575C84.9359 2.55575 84.698 2.46342 84.4991 2.27876C84.3038 2.09055 84.2061 1.86683 84.2061 1.6076C84.2061 1.34482 84.3038 1.12109 84.4991 0.936434C84.698 0.748224 84.9359 0.654119 85.2129 0.654119C85.4899 0.654119 85.726 0.748224 85.9213 0.936434C86.1202 1.12109 86.2196 1.34482 86.2196 1.6076C86.2196 1.86683 86.1202 2.09055 85.9213 2.27876C85.726 2.46342 85.4899 2.55575 85.2129 2.55575ZM92.4132 3.81818V5.09659H87.944V3.81818H92.4132ZM89.1426 1.85795H90.7352V9.59766C90.7352 9.90661 90.7814 10.1392 90.8737 10.2955C90.9661 10.4482 91.085 10.5529 91.2306 10.6097C91.3798 10.663 91.5414 10.6896 91.7154 10.6896C91.8432 10.6896 91.9551 10.6808 92.0509 10.663C92.1468 10.6452 92.2214 10.631 92.2747 10.6204L92.5623 11.9361C92.47 11.9716 92.3386 12.0071 92.1681 12.0426C91.9977 12.0817 91.7846 12.103 91.5289 12.1065C91.1099 12.1136 90.7193 12.0391 90.357 11.8828C89.9948 11.7266 89.7019 11.4851 89.4781 11.1584C89.2544 10.8317 89.1426 10.4215 89.1426 9.92791V1.85795ZM98.0634 12.1651C97.2572 12.1651 96.563 11.9929 95.9806 11.6484C95.4018 11.3004 94.9543 10.8121 94.6383 10.1836C94.3258 9.55149 94.1695 8.81108 94.1695 7.96236C94.1695 7.12429 94.3258 6.38565 94.6383 5.74645C94.9543 5.10724 95.3947 4.60831 95.9593 4.24964C96.5275 3.89098 97.1915 3.71165 97.9515 3.71165C98.4131 3.71165 98.8606 3.788 99.2938 3.9407C99.7271 4.09339 100.116 4.3331 100.46 4.6598C100.805 4.98651 101.076 5.41087 101.275 5.93288C101.474 6.45135 101.574 7.08168 101.574 7.82386V8.38849H95.0697V7.19531H100.013C100.013 6.77628 99.9277 6.40518 99.7572 6.08203C99.5868 5.75533 99.3471 5.49787 99.0381 5.30966C98.7327 5.12145 98.3741 5.02734 97.9621 5.02734C97.5147 5.02734 97.1241 5.13743 96.7903 5.3576C96.46 5.57422 96.2043 5.85831 96.0232 6.20987C95.8457 6.55788 95.7569 6.93608 95.7569 7.34446V8.27663C95.7569 8.82351 95.8528 9.28871 96.0445 9.67223C96.2398 10.0558 96.5115 10.3487 96.8595 10.5511C97.2075 10.75 97.6141 10.8494 98.0793 10.8494C98.3812 10.8494 98.6564 10.8068 98.905 10.7216C99.1536 10.6328 99.3684 10.5014 99.5495 10.3274C99.7306 10.1534 99.8691 9.93857 99.965 9.68288L101.472 9.95455C101.352 10.3984 101.135 10.7873 100.823 11.1211C100.514 11.4513 100.125 11.7088 99.656 11.8935C99.1908 12.0746 98.6599 12.1651 98.0634 12.1651Z" fill="#1EA6CC"/>
</svg>
